<mxfile host="app.diagrams.net" modified="2022-08-25T06:41:32.000Z" agent="5.0 (Macintosh; Intel Mac OS X 10_15_7) AppleWebKit/537.36 (KHTML, like Gecko) Chrome/104.0.0.0 Safari/537.36" etag="r7MzzG2TXaN1OLNEK5-X" version="20.2.6" type="github">
  <diagram id="ygsIOkY8hqdLPStb8j4j" name="第 1 页">
    <mxGraphModel dx="1426" dy="1792" grid="1" gridSize="10" guides="1" tooltips="1" connect="1" arrows="1" fold="1" page="1" pageScale="1" pageWidth="827" pageHeight="1169" math="0" shadow="0">
      <root>
        <mxCell id="0" />
        <mxCell id="1" parent="0" />
        <mxCell id="i9bWkcrFxkklujKdhc0_-10" style="edgeStyle=orthogonalEdgeStyle;rounded=0;orthogonalLoop=1;jettySize=auto;html=1;entryX=0.5;entryY=0;entryDx=0;entryDy=0;fontSize=24;strokeColor=#3399FF;" edge="1" parent="1" source="i9bWkcrFxkklujKdhc0_-14" target="i9bWkcrFxkklujKdhc0_-21">
          <mxGeometry relative="1" as="geometry">
            <Array as="points">
              <mxPoint x="260" y="-590" />
              <mxPoint x="140" y="-590" />
            </Array>
          </mxGeometry>
        </mxCell>
        <mxCell id="i9bWkcrFxkklujKdhc0_-11" style="edgeStyle=orthogonalEdgeStyle;rounded=0;orthogonalLoop=1;jettySize=auto;html=1;entryX=0.5;entryY=0;entryDx=0;entryDy=0;fontSize=24;strokeColor=#3399FF;" edge="1" parent="1" source="i9bWkcrFxkklujKdhc0_-14" target="i9bWkcrFxkklujKdhc0_-23">
          <mxGeometry relative="1" as="geometry">
            <Array as="points">
              <mxPoint x="260" y="-590" />
              <mxPoint x="210" y="-590" />
            </Array>
          </mxGeometry>
        </mxCell>
        <mxCell id="i9bWkcrFxkklujKdhc0_-12" style="edgeStyle=orthogonalEdgeStyle;rounded=0;orthogonalLoop=1;jettySize=auto;html=1;entryX=0.5;entryY=0;entryDx=0;entryDy=0;fontSize=24;strokeColor=#3399FF;" edge="1" parent="1" source="i9bWkcrFxkklujKdhc0_-14" target="i9bWkcrFxkklujKdhc0_-25">
          <mxGeometry relative="1" as="geometry">
            <Array as="points">
              <mxPoint x="260" y="-590" />
              <mxPoint x="280" y="-590" />
            </Array>
          </mxGeometry>
        </mxCell>
        <mxCell id="i9bWkcrFxkklujKdhc0_-13" style="edgeStyle=orthogonalEdgeStyle;rounded=0;orthogonalLoop=1;jettySize=auto;html=1;entryX=0.5;entryY=0;entryDx=0;entryDy=0;fontSize=24;strokeColor=#3399FF;" edge="1" parent="1" source="i9bWkcrFxkklujKdhc0_-14" target="i9bWkcrFxkklujKdhc0_-27">
          <mxGeometry relative="1" as="geometry">
            <Array as="points">
              <mxPoint x="260" y="-590" />
              <mxPoint x="350" y="-590" />
            </Array>
          </mxGeometry>
        </mxCell>
        <mxCell id="i9bWkcrFxkklujKdhc0_-14" value="产品管理" style="rounded=0;whiteSpace=wrap;html=1;fontSize=24;strokeColor=#97D077;" vertex="1" parent="1">
          <mxGeometry x="200" y="-670" width="120" height="60" as="geometry" />
        </mxCell>
        <mxCell id="i9bWkcrFxkklujKdhc0_-15" style="edgeStyle=orthogonalEdgeStyle;rounded=0;orthogonalLoop=1;jettySize=auto;html=1;fontSize=24;strokeColor=#3399FF;" edge="1" parent="1" source="i9bWkcrFxkklujKdhc0_-16" target="i9bWkcrFxkklujKdhc0_-29">
          <mxGeometry relative="1" as="geometry" />
        </mxCell>
        <mxCell id="i9bWkcrFxkklujKdhc0_-16" value="用户管理" style="rounded=0;whiteSpace=wrap;html=1;fontSize=24;strokeColor=#97D077;" vertex="1" parent="1">
          <mxGeometry x="354" y="-670" width="120" height="60" as="geometry" />
        </mxCell>
        <mxCell id="i9bWkcrFxkklujKdhc0_-17" style="edgeStyle=orthogonalEdgeStyle;rounded=0;orthogonalLoop=1;jettySize=auto;html=1;entryX=0.5;entryY=0;entryDx=0;entryDy=0;fontSize=24;strokeColor=#3399FF;" edge="1" parent="1" source="i9bWkcrFxkklujKdhc0_-19" target="i9bWkcrFxkklujKdhc0_-31">
          <mxGeometry relative="1" as="geometry" />
        </mxCell>
        <mxCell id="i9bWkcrFxkklujKdhc0_-18" style="edgeStyle=orthogonalEdgeStyle;rounded=0;orthogonalLoop=1;jettySize=auto;html=1;entryX=0.5;entryY=0;entryDx=0;entryDy=0;fontSize=24;strokeColor=#3399FF;" edge="1" parent="1" source="i9bWkcrFxkklujKdhc0_-19" target="i9bWkcrFxkklujKdhc0_-33">
          <mxGeometry relative="1" as="geometry" />
        </mxCell>
        <mxCell id="i9bWkcrFxkklujKdhc0_-36" style="edgeStyle=orthogonalEdgeStyle;rounded=0;orthogonalLoop=1;jettySize=auto;html=1;entryX=0.5;entryY=0;entryDx=0;entryDy=0;strokeColor=#3399FF;" edge="1" parent="1" source="i9bWkcrFxkklujKdhc0_-19" target="i9bWkcrFxkklujKdhc0_-35">
          <mxGeometry relative="1" as="geometry" />
        </mxCell>
        <mxCell id="i9bWkcrFxkklujKdhc0_-19" value="消息管理" style="rounded=0;whiteSpace=wrap;html=1;fontSize=24;strokeColor=#97D077;" vertex="1" parent="1">
          <mxGeometry x="490" y="-670" width="120" height="60" as="geometry" />
        </mxCell>
        <mxCell id="i9bWkcrFxkklujKdhc0_-21" value="产品列表" style="rounded=0;whiteSpace=wrap;html=1;fontSize=24;strokeColor=#97D077;" vertex="1" parent="1">
          <mxGeometry x="120" y="-560" width="40" height="140" as="geometry" />
        </mxCell>
        <mxCell id="i9bWkcrFxkklujKdhc0_-23" value="产品分类" style="rounded=0;whiteSpace=wrap;html=1;fontSize=24;strokeColor=#97D077;" vertex="1" parent="1">
          <mxGeometry x="190" y="-560" width="40" height="140" as="geometry" />
        </mxCell>
        <mxCell id="i9bWkcrFxkklujKdhc0_-25" value="订单列表" style="rounded=0;whiteSpace=wrap;html=1;fontSize=24;strokeColor=#97D077;" vertex="1" parent="1">
          <mxGeometry x="260" y="-560" width="40" height="140" as="geometry" />
        </mxCell>
        <mxCell id="i9bWkcrFxkklujKdhc0_-27" value="产品结算" style="rounded=0;whiteSpace=wrap;html=1;fontSize=24;strokeColor=#97D077;" vertex="1" parent="1">
          <mxGeometry x="330" y="-560" width="40" height="140" as="geometry" />
        </mxCell>
        <mxCell id="i9bWkcrFxkklujKdhc0_-29" value="用户列表" style="rounded=0;whiteSpace=wrap;html=1;fontSize=24;strokeColor=#97D077;" vertex="1" parent="1">
          <mxGeometry x="394" y="-560" width="40" height="140" as="geometry" />
        </mxCell>
        <mxCell id="i9bWkcrFxkklujKdhc0_-31" value="消息列表" style="rounded=0;whiteSpace=wrap;html=1;fontSize=24;strokeColor=#97D077;" vertex="1" parent="1">
          <mxGeometry x="480" y="-560" width="40" height="140" as="geometry" />
        </mxCell>
        <mxCell id="i9bWkcrFxkklujKdhc0_-33" value="消息详情" style="rounded=0;whiteSpace=wrap;html=1;fontSize=24;strokeColor=#97D077;" vertex="1" parent="1">
          <mxGeometry x="530" y="-560" width="40" height="140" as="geometry" />
        </mxCell>
        <mxCell id="i9bWkcrFxkklujKdhc0_-35" value="消息分类" style="rounded=0;whiteSpace=wrap;html=1;fontSize=24;strokeColor=#97D077;" vertex="1" parent="1">
          <mxGeometry x="580" y="-560" width="40" height="140" as="geometry" />
        </mxCell>
        <mxCell id="i9bWkcrFxkklujKdhc0_-86" style="edgeStyle=orthogonalEdgeStyle;rounded=0;orthogonalLoop=1;jettySize=auto;html=1;fontSize=24;strokeColor=#3399FF;" edge="1" parent="1" source="i9bWkcrFxkklujKdhc0_-38" target="i9bWkcrFxkklujKdhc0_-16">
          <mxGeometry relative="1" as="geometry" />
        </mxCell>
        <mxCell id="i9bWkcrFxkklujKdhc0_-87" style="edgeStyle=orthogonalEdgeStyle;rounded=0;orthogonalLoop=1;jettySize=auto;html=1;fontSize=24;strokeColor=#3399FF;" edge="1" parent="1" source="i9bWkcrFxkklujKdhc0_-38" target="i9bWkcrFxkklujKdhc0_-19">
          <mxGeometry relative="1" as="geometry">
            <Array as="points">
              <mxPoint x="414" y="-700" />
              <mxPoint x="550" y="-700" />
            </Array>
          </mxGeometry>
        </mxCell>
        <mxCell id="i9bWkcrFxkklujKdhc0_-90" style="edgeStyle=orthogonalEdgeStyle;rounded=0;orthogonalLoop=1;jettySize=auto;html=1;entryX=0.5;entryY=0;entryDx=0;entryDy=0;fontSize=24;strokeColor=#3399FF;" edge="1" parent="1" source="i9bWkcrFxkklujKdhc0_-38" target="i9bWkcrFxkklujKdhc0_-14">
          <mxGeometry relative="1" as="geometry">
            <Array as="points">
              <mxPoint x="414" y="-700" />
              <mxPoint x="260" y="-700" />
            </Array>
          </mxGeometry>
        </mxCell>
        <mxCell id="i9bWkcrFxkklujKdhc0_-38" value="&lt;span style=&quot;font-size: 24px;&quot;&gt;管理员&lt;/span&gt;" style="rounded=0;whiteSpace=wrap;html=1;strokeColor=#97D077;" vertex="1" parent="1">
          <mxGeometry x="356" y="-780" width="116" height="50" as="geometry" />
        </mxCell>
        <mxCell id="i9bWkcrFxkklujKdhc0_-49" style="edgeStyle=orthogonalEdgeStyle;rounded=0;orthogonalLoop=1;jettySize=auto;html=1;entryX=0.5;entryY=0;entryDx=0;entryDy=0;fontSize=24;strokeColor=#3399FF;" edge="1" parent="1" source="i9bWkcrFxkklujKdhc0_-50" target="i9bWkcrFxkklujKdhc0_-66">
          <mxGeometry relative="1" as="geometry" />
        </mxCell>
        <mxCell id="i9bWkcrFxkklujKdhc0_-50" value="产品介绍" style="rounded=0;whiteSpace=wrap;html=1;fontSize=24;strokeColor=#97D077;" vertex="1" parent="1">
          <mxGeometry x="640" y="-670" width="120" height="60" as="geometry" />
        </mxCell>
        <mxCell id="i9bWkcrFxkklujKdhc0_-51" style="edgeStyle=orthogonalEdgeStyle;rounded=0;orthogonalLoop=1;jettySize=auto;html=1;entryX=0.5;entryY=0;entryDx=0;entryDy=0;fontSize=24;strokeColor=#3399FF;" edge="1" parent="1" source="i9bWkcrFxkklujKdhc0_-54" target="i9bWkcrFxkklujKdhc0_-68">
          <mxGeometry relative="1" as="geometry" />
        </mxCell>
        <mxCell id="i9bWkcrFxkklujKdhc0_-52" style="edgeStyle=orthogonalEdgeStyle;rounded=0;orthogonalLoop=1;jettySize=auto;html=1;entryX=0.5;entryY=0;entryDx=0;entryDy=0;fontSize=24;strokeColor=#3399FF;" edge="1" parent="1" source="i9bWkcrFxkklujKdhc0_-54" target="i9bWkcrFxkklujKdhc0_-70">
          <mxGeometry relative="1" as="geometry" />
        </mxCell>
        <mxCell id="i9bWkcrFxkklujKdhc0_-53" style="edgeStyle=orthogonalEdgeStyle;rounded=0;orthogonalLoop=1;jettySize=auto;html=1;entryX=0.5;entryY=0;entryDx=0;entryDy=0;fontSize=24;strokeColor=#3399FF;" edge="1" parent="1" source="i9bWkcrFxkklujKdhc0_-54" target="i9bWkcrFxkklujKdhc0_-72">
          <mxGeometry relative="1" as="geometry" />
        </mxCell>
        <mxCell id="i9bWkcrFxkklujKdhc0_-54" value="我的产品" style="rounded=0;whiteSpace=wrap;html=1;fontSize=24;strokeColor=#97D077;" vertex="1" parent="1">
          <mxGeometry x="790" y="-670" width="120" height="60" as="geometry" />
        </mxCell>
        <mxCell id="i9bWkcrFxkklujKdhc0_-55" style="edgeStyle=orthogonalEdgeStyle;rounded=0;orthogonalLoop=1;jettySize=auto;html=1;entryX=0.5;entryY=0;entryDx=0;entryDy=0;fontSize=24;strokeColor=#3399FF;" edge="1" parent="1" source="i9bWkcrFxkklujKdhc0_-58" target="i9bWkcrFxkklujKdhc0_-74">
          <mxGeometry relative="1" as="geometry" />
        </mxCell>
        <mxCell id="i9bWkcrFxkklujKdhc0_-56" style="edgeStyle=orthogonalEdgeStyle;rounded=0;orthogonalLoop=1;jettySize=auto;html=1;entryX=0.5;entryY=0;entryDx=0;entryDy=0;fontSize=24;strokeColor=#3399FF;" edge="1" parent="1" source="i9bWkcrFxkklujKdhc0_-58" target="i9bWkcrFxkklujKdhc0_-76">
          <mxGeometry relative="1" as="geometry" />
        </mxCell>
        <mxCell id="i9bWkcrFxkklujKdhc0_-57" style="edgeStyle=orthogonalEdgeStyle;rounded=0;orthogonalLoop=1;jettySize=auto;html=1;entryX=0.5;entryY=0;entryDx=0;entryDy=0;fontSize=24;strokeColor=#3399FF;" edge="1" parent="1" source="i9bWkcrFxkklujKdhc0_-58" target="i9bWkcrFxkklujKdhc0_-78">
          <mxGeometry relative="1" as="geometry" />
        </mxCell>
        <mxCell id="i9bWkcrFxkklujKdhc0_-58" value="子会员管理" style="rounded=0;whiteSpace=wrap;html=1;fontSize=24;strokeColor=#97D077;" vertex="1" parent="1">
          <mxGeometry x="957" y="-670" width="140" height="60" as="geometry" />
        </mxCell>
        <mxCell id="i9bWkcrFxkklujKdhc0_-59" style="edgeStyle=orthogonalEdgeStyle;rounded=0;orthogonalLoop=1;jettySize=auto;html=1;fontSize=24;strokeColor=#3399FF;" edge="1" parent="1" source="i9bWkcrFxkklujKdhc0_-62" target="i9bWkcrFxkklujKdhc0_-82">
          <mxGeometry relative="1" as="geometry" />
        </mxCell>
        <mxCell id="i9bWkcrFxkklujKdhc0_-60" style="edgeStyle=orthogonalEdgeStyle;rounded=0;orthogonalLoop=1;jettySize=auto;html=1;fontSize=24;strokeColor=#3399FF;" edge="1" parent="1" source="i9bWkcrFxkklujKdhc0_-62" target="i9bWkcrFxkklujKdhc0_-80">
          <mxGeometry relative="1" as="geometry" />
        </mxCell>
        <mxCell id="i9bWkcrFxkklujKdhc0_-61" style="edgeStyle=orthogonalEdgeStyle;rounded=0;orthogonalLoop=1;jettySize=auto;html=1;entryX=0.5;entryY=0;entryDx=0;entryDy=0;fontSize=24;strokeColor=#3399FF;" edge="1" parent="1" source="i9bWkcrFxkklujKdhc0_-62" target="i9bWkcrFxkklujKdhc0_-84">
          <mxGeometry relative="1" as="geometry" />
        </mxCell>
        <mxCell id="i9bWkcrFxkklujKdhc0_-62" value="我的信息" style="rounded=0;whiteSpace=wrap;html=1;fontSize=24;strokeColor=#97D077;" vertex="1" parent="1">
          <mxGeometry x="1150" y="-670" width="120" height="60" as="geometry" />
        </mxCell>
        <mxCell id="i9bWkcrFxkklujKdhc0_-64" value="信息通知" style="rounded=0;whiteSpace=wrap;html=1;fontSize=24;strokeColor=#97D077;" vertex="1" parent="1">
          <mxGeometry x="1290" y="-670" width="120" height="60" as="geometry" />
        </mxCell>
        <mxCell id="i9bWkcrFxkklujKdhc0_-66" value="产品中心" style="rounded=0;whiteSpace=wrap;html=1;fontSize=24;strokeColor=#97D077;" vertex="1" parent="1">
          <mxGeometry x="680" y="-550" width="40" height="130" as="geometry" />
        </mxCell>
        <mxCell id="i9bWkcrFxkklujKdhc0_-68" value="产品列表" style="rounded=0;whiteSpace=wrap;html=1;fontSize=24;strokeColor=#97D077;" vertex="1" parent="1">
          <mxGeometry x="770" y="-550" width="40" height="130" as="geometry" />
        </mxCell>
        <mxCell id="i9bWkcrFxkklujKdhc0_-70" value="订单列表" style="rounded=0;whiteSpace=wrap;html=1;fontSize=24;strokeColor=#97D077;" vertex="1" parent="1">
          <mxGeometry x="830" y="-550" width="40" height="130" as="geometry" />
        </mxCell>
        <mxCell id="i9bWkcrFxkklujKdhc0_-72" value="收益记录" style="rounded=0;whiteSpace=wrap;html=1;fontSize=24;strokeColor=#97D077;" vertex="1" parent="1">
          <mxGeometry x="893.5" y="-550" width="40" height="130" as="geometry" />
        </mxCell>
        <mxCell id="i9bWkcrFxkklujKdhc0_-74" value="子会员管理" style="rounded=0;whiteSpace=wrap;html=1;fontSize=24;strokeColor=#97D077;" vertex="1" parent="1">
          <mxGeometry x="950" y="-550" width="41" height="160" as="geometry" />
        </mxCell>
        <mxCell id="i9bWkcrFxkklujKdhc0_-76" value="子会员列表" style="rounded=0;whiteSpace=wrap;html=1;fontSize=24;strokeColor=#97D077;" vertex="1" parent="1">
          <mxGeometry x="1006.5" y="-550" width="41" height="160" as="geometry" />
        </mxCell>
        <mxCell id="i9bWkcrFxkklujKdhc0_-78" value="子会员订单" style="rounded=0;whiteSpace=wrap;html=1;fontSize=24;strokeColor=#97D077;" vertex="1" parent="1">
          <mxGeometry x="1063" y="-550" width="41" height="160" as="geometry" />
        </mxCell>
        <mxCell id="i9bWkcrFxkklujKdhc0_-80" value="财务账号" style="rounded=0;whiteSpace=wrap;html=1;fontSize=24;strokeColor=#97D077;" vertex="1" parent="1">
          <mxGeometry x="1190" y="-550" width="40" height="130" as="geometry" />
        </mxCell>
        <mxCell id="i9bWkcrFxkklujKdhc0_-82" value="基本信息" style="rounded=0;whiteSpace=wrap;html=1;fontSize=24;strokeColor=#97D077;" vertex="1" parent="1">
          <mxGeometry x="1130" y="-550" width="40" height="130" as="geometry" />
        </mxCell>
        <mxCell id="i9bWkcrFxkklujKdhc0_-84" value="修改密码" style="rounded=0;whiteSpace=wrap;html=1;fontSize=24;strokeColor=#97D077;" vertex="1" parent="1">
          <mxGeometry x="1250" y="-550" width="40" height="130" as="geometry" />
        </mxCell>
        <mxCell id="i9bWkcrFxkklujKdhc0_-94" style="edgeStyle=orthogonalEdgeStyle;rounded=0;orthogonalLoop=1;jettySize=auto;html=1;fontSize=24;strokeColor=#3399FF;" edge="1" parent="1" source="i9bWkcrFxkklujKdhc0_-91" target="i9bWkcrFxkklujKdhc0_-50">
          <mxGeometry relative="1" as="geometry">
            <Array as="points">
              <mxPoint x="1027" y="-700" />
              <mxPoint x="700" y="-700" />
            </Array>
          </mxGeometry>
        </mxCell>
        <mxCell id="i9bWkcrFxkklujKdhc0_-95" style="edgeStyle=orthogonalEdgeStyle;rounded=0;orthogonalLoop=1;jettySize=auto;html=1;fontSize=24;strokeColor=#3399FF;" edge="1" parent="1" source="i9bWkcrFxkklujKdhc0_-91" target="i9bWkcrFxkklujKdhc0_-54">
          <mxGeometry relative="1" as="geometry">
            <Array as="points">
              <mxPoint x="1027" y="-700" />
              <mxPoint x="880" y="-700" />
            </Array>
          </mxGeometry>
        </mxCell>
        <mxCell id="i9bWkcrFxkklujKdhc0_-96" style="edgeStyle=orthogonalEdgeStyle;rounded=0;orthogonalLoop=1;jettySize=auto;html=1;entryX=0.5;entryY=0;entryDx=0;entryDy=0;fontSize=24;strokeColor=#3399FF;" edge="1" parent="1" source="i9bWkcrFxkklujKdhc0_-91" target="i9bWkcrFxkklujKdhc0_-58">
          <mxGeometry relative="1" as="geometry" />
        </mxCell>
        <mxCell id="i9bWkcrFxkklujKdhc0_-98" style="edgeStyle=orthogonalEdgeStyle;rounded=0;orthogonalLoop=1;jettySize=auto;html=1;fontSize=24;strokeColor=#3399FF;" edge="1" parent="1" source="i9bWkcrFxkklujKdhc0_-91" target="i9bWkcrFxkklujKdhc0_-62">
          <mxGeometry relative="1" as="geometry">
            <Array as="points">
              <mxPoint x="1027" y="-700" />
              <mxPoint x="1210" y="-700" />
            </Array>
          </mxGeometry>
        </mxCell>
        <mxCell id="i9bWkcrFxkklujKdhc0_-99" style="edgeStyle=orthogonalEdgeStyle;rounded=0;orthogonalLoop=1;jettySize=auto;html=1;fontSize=24;strokeColor=#3399FF;" edge="1" parent="1" source="i9bWkcrFxkklujKdhc0_-91" target="i9bWkcrFxkklujKdhc0_-64">
          <mxGeometry relative="1" as="geometry">
            <Array as="points">
              <mxPoint x="1027" y="-700" />
              <mxPoint x="1350" y="-700" />
            </Array>
          </mxGeometry>
        </mxCell>
        <mxCell id="i9bWkcrFxkklujKdhc0_-91" value="用户" style="rounded=0;whiteSpace=wrap;html=1;fontSize=24;strokeColor=#97D077;" vertex="1" parent="1">
          <mxGeometry x="965.5" y="-790" width="123" height="50" as="geometry" />
        </mxCell>
      </root>
    </mxGraphModel>
  </diagram>
</mxfile>
